<svg xmlns="http://www.w3.org/2000/svg" xmlns:xlink="http://www.w3.org/1999/xlink" viewBox="0 0 2100 900" id="svgcontent" overflow="visible" x="0" y="0" width="1040" height="400"><style type="text/css" style="pointer-events: inherit">.st0{fill:none;stroke:#999999;stroke-width:2;stroke-miterlimit:10;}
	.st1{fill:none;stroke:#999999;stroke-width:2;stroke-miterlimit:10;stroke-dasharray:11.4688,11.4688;}
	.st2{fill:none;stroke:#999999;stroke-width:2;stroke-miterlimit:10;stroke-dasharray:12;}
	.st3{fill:none;stroke:#F15A24;stroke-width:4;stroke-miterlimit:10;}
	.st4{fill:#999999;}
	.st5{fill:#F15A2A;}
	.st6{fill:#F05E2B;}
	.st7{fill:#545454;}
	.st8{font-family:'TwCenMT-Bold';}
	.st9{font-size:38.4278px;}
	.st10{font-family:'TwCenMT-Regular';}
	.st11{font-size:24.5938px;}
	.st12{font-family:'FuturaStd-Heavy';}
	.st13{font-size:17.8448px;}
	.st14{font-size:50px;}
	.st15{font-family:'FuturaStd-Light';}
	.st16{font-size:36px;}</style><g style="pointer-events:all" opacity="1"><title style="pointer-events: inherit">Layer 1</title><g id="GreyLines" style="pointer-events: inherit"><line class="st0" x1="183.55185241699218" y1="281.0963256835937" x2="183.55185241699218" y2="356.79632568359375" style="pointer-events:inherit" id="svg_1"></line><line class="st0" x1="97.35185241699219" y1="356.9963256835938" x2="2049.2518524169923" y2="356.9963256835938" style="pointer-events:inherit" id="svg_2"></line><line class="st0" x1="1475.8518524169922" y1="206.69632568359373" x2="1696.2518524169923" y2="206.69632568359373" style="pointer-events:inherit" id="svg_3"></line><line class="st0" x1="467.05185241699223" y1="223.39632568359377" x2="853.3518524169922" y2="223.39632568359377" style="pointer-events:inherit" id="svg_4"></line><line class="st0" x1="387.9518524169922" y1="356.9963256835938" x2="467.05185241699223" y2="224.4963256835938" style="pointer-events:inherit" id="svg_5"></line><line class="st0" x1="467.05185241699223" y1="473.8963256835938" x2="656.3518524169922" y2="448.29632568359375" style="pointer-events:inherit" id="svg_6"></line><line class="st0" x1="1024.8518524169922" y1="447.1963256835937" x2="661.8518524169922" y2="447.1963256835937" style="pointer-events:inherit" id="svg_7"></line><line class="st0" x1="138.55185241699218" y1="87.4963256835938" x2="387.9518524169922" y2="356.9963256835938" style="pointer-events:inherit" id="svg_8"></line><line class="st0" x1="278.8518524169922" y1="87.4963256835938" x2="213.1518524169922" y2="169.89632568359377" style="pointer-events:inherit" id="svg_9"></line><line class="st0" x1="198.6518524169922" y1="557.3963256835937" x2="385.75185241699216" y2="363.6963256835937" style="pointer-events:inherit" id="svg_10"></line><line class="st0" x1="386.8518524169922" y1="355.8963256835938" x2="465.9518524169922" y2="473.8963256835938" style="pointer-events:inherit" id="svg_11"></line><g style="pointer-events:inherit" id="svg_12"><g style="pointer-events:inherit" id="svg_13"><line class="st0" x1="837.8518524169922" y1="444.8963256835938" x2="843.3518524169922" y2="447.0963256835937" style="pointer-events:inherit" id="svg_14"></line><line class="st1" x1="854.0518524169922" y1="451.29632568359375" x2="1019.5518524169922" y2="516.3963256835937" style="pointer-events:inherit" id="svg_15"></line><line class="st0" x1="1024.8518524169922" y1="518.4963256835938" x2="1030.451852416992" y2="520.6963256835938" style="pointer-events:inherit" id="svg_16"></line></g></g><line class="st2" x1="854.5518524169922" y1="221.0963256835937" x2="1081.6518524169921" y2="242.29632568359375" style="pointer-events:inherit" id="svg_17"></line><line class="st0" x1="852.2518524169923" y1="223.39632568359377" x2="1082.6518524169921" y2="130.89632568359377" style="pointer-events:inherit" id="svg_18"></line><line class="st0" x1="1014.8518524169922" y1="28.496325683593795" x2="851.1518524169921" y2="222.29632568359375" style="pointer-events:inherit" id="svg_19"></line><line class="st0" x1="1475.8518524169922" y1="205.5963256835937" x2="1207.5518524169922" y2="356.5963256835937" style="pointer-events:inherit" id="svg_20"></line><line class="st0" x1="1689.5518524169922" y1="204.39632568359377" x2="1741.951852416992" y2="355.8963256835938" style="pointer-events:inherit" id="svg_21"></line></g><g id="Orange_Lines" style="pointer-events: inherit"><line class="st3" x1="464.8518524169922" y1="227.79632568359375" x2="547.2518524169922" y2="91.9963256835938" style="pointer-events:inherit" id="svg_22"></line><line class="st3" x1="554.9518524169922" y1="78.5963256835937" x2="784.3518524169922" y2="78.5963256835937" style="pointer-events:inherit" id="svg_23"></line><line class="st3" x1="852.2518524169923" y1="223.39632568359377" x2="784.3518524169922" y2="77.4963256835938" style="pointer-events:inherit" id="svg_24"></line><line class="st3" x1="467.05185241699223" y1="472.79632568359375" x2="467.05185241699223" y2="824.5963256835937" style="pointer-events:inherit" id="svg_25"></line><line class="st3" x1="569.4518524169922" y1="634.1963256835938" x2="469.25185241699216" y2="474.9963256835938" style="pointer-events:inherit" id="svg_26"></line><line class="st3" x1="778.7518524169922" y1="634.1963256835938" x2="569.4518524169922" y2="634.1963256835938" style="pointer-events:inherit" id="svg_27"></line><line class="st3" x1="467.05185241699223" y1="822.3963256835937" x2="676.3518524169922" y2="823.4963256835938" style="pointer-events:inherit" id="svg_28"></line><line class="st3" x1="900.1518524169921" y1="822.3963256835937" x2="676.3518524169922" y2="823.4963256835938" style="pointer-events:inherit" id="svg_29"></line><line class="st3" x1="1018.1518524169921" y1="634.1963256835938" x2="899.0518524169922" y2="822.3963256835937" style="pointer-events:inherit" id="svg_30"></line><line class="st3" x1="777.6518524169921" y1="634.1963256835938" x2="1015.9518524169921" y2="633.0963256835937" style="pointer-events:inherit" id="svg_31"></line></g><g id="Grey_Dots" style="pointer-events: inherit"><g style="pointer-events:inherit" id="svg_32"><circle class="st4" cx="99.05185241699218" cy="357.4963256835938" r="22.799999237060547" style="pointer-events:inherit" id="svg_33"></circle></g><g style="pointer-events:inherit" id="svg_34"><circle class="st4" cx="2047.551852416992" cy="357.4963256835938" r="22.799999237060547" style="pointer-events:inherit" id="svg_35"></circle></g><g style="pointer-events:inherit" id="svg_36"><circle class="st4" cx="388.55185241699223" cy="356.3963256835938" r="22.799999237060547" style="pointer-events:inherit" id="svg_37"></circle></g><g style="pointer-events:inherit" id="svg_38"><circle class="st4" cx="467.55185241699223" cy="223.89632568359377" r="22.799999237060547" style="pointer-events:inherit" id="svg_39"></circle></g><g style="pointer-events:inherit" id="svg_40"><circle class="st4" cx="467.55185241699223" cy="473.29632568359375" r="22.799999237060547" style="pointer-events:inherit" id="svg_41"></circle></g><g style="pointer-events:inherit" id="svg_42"><circle class="st4" cx="852.8518524169922" cy="223.89632568359377" r="22.799999237060547" style="pointer-events:inherit" id="svg_43"></circle></g><g style="pointer-events:inherit" id="svg_44"><circle class="st4" cx="184.05185241699218" cy="281.79632568359375" r="11.699999809265137" style="pointer-events:inherit" id="svg_45"></circle></g><g style="pointer-events:inherit" id="svg_46"><circle class="st4" cx="1315.1518524169921" cy="357.9963256835938" r="11.699999809265137" style="pointer-events:inherit" id="svg_47"></circle></g><g style="pointer-events:inherit" id="svg_48"><circle class="st4" cx="1474.951852416992" cy="359.0963256835937" r="11.699999809265137" style="pointer-events:inherit" id="svg_49"></circle></g><g style="pointer-events:inherit" id="svg_50"><circle class="st4" cx="1636.6518524169921" cy="357.4963256835938" r="11.699999809265137" style="pointer-events:inherit" id="svg_51"></circle></g><g style="pointer-events:inherit" id="svg_52"><circle class="st4" cx="1742.451852416992" cy="356.3963256835938" r="11.699999809265137" style="pointer-events:inherit" id="svg_53"></circle></g><g style="pointer-events:inherit" id="svg_54"><circle class="st4" cx="1847.1518524169921" cy="356.3963256835938" r="11.699999809265137" style="pointer-events:inherit" id="svg_55"></circle></g><g style="pointer-events:inherit" id="svg_56"><circle class="st4" cx="1476.3518524169922" cy="207.19632568359373" r="11.699999809265137" style="pointer-events:inherit" id="svg_57"></circle></g><g style="pointer-events:inherit" id="svg_58"><circle class="st4" cx="1585.451852416992" cy="208.29632568359375" r="11.699999809265137" style="pointer-events:inherit" id="svg_59"></circle></g><g style="pointer-events:inherit" id="svg_60"><circle class="st4" cx="1691.2518524169923" cy="207.19632568359373" r="11.699999809265137" style="pointer-events:inherit" id="svg_61"></circle></g><g style="pointer-events:inherit" id="svg_62"><circle class="st4" cx="661.3518524169922" cy="446.5963256835937" r="11.699999809265137" style="pointer-events:inherit" id="svg_63"></circle></g><g style="pointer-events:inherit" id="svg_64"><circle class="st4" cx="840.5518524169922" cy="446.5963256835937" r="11.699999809265137" style="pointer-events:inherit" id="svg_65"></circle></g><g style="pointer-events:inherit" id="svg_66"><circle class="st4" cx="1027.6518524169921" cy="446.5963256835937" r="11.699999809265137" style="pointer-events:inherit" id="svg_67"></circle></g><g style="pointer-events:inherit" id="svg_68"><circle class="st4" cx="1030.951852416992" cy="518.9963256835938" r="11.699999809265137" style="pointer-events:inherit" id="svg_69"></circle></g><g style="pointer-events:inherit" id="svg_70"><circle class="st4" cx="662.4518524169922" cy="222.79632568359375" r="11.699999809265137" style="pointer-events:inherit" id="svg_71"></circle></g><g style="pointer-events:inherit" id="svg_72"><ellipse transform="matrix(0.9864,-0.1641,0.1641,0.9864,-76.3099,203.6809) " class="st4" cx="1104.8030969924969" cy="5.671465835424328" rx="11.699999999999998" ry="11.699999999999998" style="pointer-events:inherit" id="svg_73"></ellipse></g><g style="pointer-events:inherit" id="svg_74"><ellipse transform="matrix(0.9864,-0.1641,0.1641,0.9864,-92.2696,216.2974) " class="st4" cx="1173.2030969924967" cy="108.5714658354243" rx="11.699999999999998" ry="11.699999999999998" style="pointer-events:inherit" id="svg_75"></ellipse></g><g style="pointer-events:inherit" id="svg_76"><ellipse transform="matrix(0.9864,-0.1641,0.1641,0.9864,-110.4897,217.5431) " class="st4" cx="1171.6030969924968" cy="219.47146583542428" rx="11.699999999999998" ry="11.699999999999998" style="pointer-events:inherit" id="svg_77"></ellipse></g><g style="pointer-events:inherit" id="svg_78"><circle class="st4" cx="1016.5518524169922" cy="634.7963256835938" r="22.799999237060547" style="pointer-events:inherit" id="svg_79"></circle></g><rect x="192.05185241699218" y="546.2963256835938" class="st4" width="16.7" height="16.7" style="pointer-events:inherit" id="svg_80"></rect><rect x="131.8518524169922" y="80.89632568359377" class="st4" width="16.7" height="16.7" style="pointer-events:inherit" id="svg_81"></rect><rect x="269.9518524169922" y="79.69632568359373" class="st4" width="16.7" height="16.7" style="pointer-events:inherit" id="svg_82"></rect></g><g id="Orange_Dots" style="pointer-events: inherit"><g style="pointer-events:inherit" id="svg_83"><circle class="st5" cx="554.4518524169922" cy="79.19632568359373" r="22.799999237060547" style="pointer-events:inherit" id="svg_84"></circle></g><g style="pointer-events:inherit" id="svg_85"><circle class="st5" cx="786.0518524169922" cy="79.19632568359373" r="22.799999237060547" style="pointer-events:inherit" id="svg_86"></circle></g><g style="pointer-events:inherit" id="svg_87"><circle class="st5" cx="779.3518524169922" cy="634.7963256835938" r="22.799999237060547" style="pointer-events:inherit" id="svg_88"></circle></g><g style="pointer-events:inherit" id="svg_89"><circle class="st5" cx="570.0518524169922" cy="634.7963256835938" r="22.799999237060547" style="pointer-events:inherit" id="svg_90"></circle></g><g style="pointer-events:inherit" id="svg_91"><circle class="st5" cx="467.55185241699223" cy="824.0963256835937" r="22.799999237060547" style="pointer-events:inherit" id="svg_92"></circle></g><g style="pointer-events:inherit" id="svg_93"><circle class="st5" cx="676.9518524169922" cy="824.0963256835937" r="22.799999237060547" style="pointer-events:inherit" id="svg_94"></circle></g><g style="pointer-events:inherit" id="svg_95"><circle class="st5" cx="900.7518524169923" cy="824.0963256835937" r="22.799999237060547" style="pointer-events:inherit" id="svg_96"></circle></g></g><g id="Grey_Arrows" style="pointer-events: inherit"><polygon class="st4" points="273.9518585205078,357.69635009765625 256.15184020996094,347.39630126953125 256.15184020996094,367.996337890625 " style="pointer-events:inherit" id="svg_97"></polygon><polygon class="st4" points="845.1519012451172,357.69635009765625 827.3518524169922,347.39630126953125 827.3518524169922,367.996337890625 " style="pointer-events:inherit" id="svg_98"></polygon><polygon class="st4" points="1262.7518768310547,358.39630126953125 1244.9518280029297,348.0963134765625 1244.9518280029297,368.69635009765625 " style="pointer-events:inherit" id="svg_99"></polygon><polygon class="st4" points="771.6518402099609,447.89630126953125 753.8518524169922,437.5963134765625 753.8518524169922,458.19635009765625 " style="pointer-events:inherit" id="svg_100"></polygon><polygon class="st4" points="415.05186462402344,294.29632568359375 432.8518524169922,304.5963134765625 432.8518524169922,283.996337890625 " style="pointer-events:inherit" id="svg_101"></polygon><polygon class="st4" points="409.4518280029297,407.79632568359375 427.2518768310547,418.0963134765625 427.2518768310547,397.496337890625 " style="pointer-events:inherit" id="svg_102"></polygon><polygon class="st4" points="1358.1519012451172,272.69635009765625 1337.5518035888672,272.69635009765625 1347.8518524169922,290.5963134765625 " style="pointer-events:inherit" id="svg_103"></polygon><polygon class="st4" points="1651.2518768310547,207.39630126953125 1633.4518280029297,197.0963134765625 1633.4518280029297,217.69635009765625 " style="pointer-events:inherit" id="svg_104"></polygon><polygon class="st4" points="1562.8518524169922,356.79632568359375 1545.0518035888672,346.5963134765625 1545.0518035888672,367.0963134765625 " style="pointer-events:inherit" id="svg_105"></polygon><polygon class="st4" points="1806.0518035888672,357.69635009765625 1788.2518768310547,347.39630126953125 1788.2518768310547,367.996337890625 " style="pointer-events:inherit" id="svg_106"></polygon><polygon class="st4" points="754.9518280029297,224.0963134765625 737.1518402099609,213.79632568359375 737.1518402099609,234.39630126953125 " style="pointer-events:inherit" id="svg_107"></polygon><polygon class="st4" points="575.7518768310547,224.0963134765625 557.8518524169922,213.79632568359375 557.8518524169922,234.39630126953125 " style="pointer-events:inherit" id="svg_108"></polygon><polygon class="st4" points="568.9518280029297,459.996337890625 550.1518402099609,451.69635009765625 552.3518524169922,472.0963134765625 " style="pointer-events:inherit" id="svg_109"></polygon><g style="pointer-events:inherit" id="svg_110"><polygon class="st5" points="515.8518524169922,163.39630126953125 516.7518768310547,142.79632568359375 498.55186462402344,152.29632568359375 " style="pointer-events:inherit" id="svg_111"></polygon></g><g style="pointer-events:inherit" id="svg_112"><polygon class="st5" points="822.0518646240234,156.69635009765625 822.9518280029297,136.19635009765625 804.7518768310547,145.69635009765625 " style="pointer-events:inherit" id="svg_113"></polygon></g><g style="pointer-events:inherit" id="svg_114"><polygon class="st5" points="655.8518524169922,69.0963134765625 655.8518524169922,89.69635009765625 673.6518402099609,79.39630126953125 " style="pointer-events:inherit" id="svg_115"></polygon></g><g style="pointer-events:inherit" id="svg_116"><polygon class="st5" points="524.7518768310547,563.0963745117188 525.6518402099609,542.5963745117188 507.4518280029297,552.0963745117188 " style="pointer-events:inherit" id="svg_117"></polygon></g><g style="pointer-events:inherit" id="svg_118"><polygon class="st5" points="467.55186462402344,671.2963256835938 476.9518280029297,652.9962768554688 456.4518280029297,653.9962768554688 " style="pointer-events:inherit" id="svg_119"></polygon></g><g style="pointer-events:inherit" id="svg_120"><polygon class="st5" points="673.6518402099609,645.2963256835938 691.5518646240234,634.9962768554688 673.6518402099609,624.6963500976562 " style="pointer-events:inherit" id="svg_121"></polygon></g><g style="pointer-events:inherit" id="svg_122"><polygon class="st5" points="896.3518524169922,645.2963256835938 914.1519012451172,634.9962768554688 896.3518524169922,624.6963500976562 " style="pointer-events:inherit" id="svg_123"></polygon></g><g style="pointer-events:inherit" id="svg_124"><polygon class="st5" points="569.0518646240234,833.3963012695312 586.8518524169922,823.0963745117188 569.0518646240234,812.8963012695312 " style="pointer-events:inherit" id="svg_125"></polygon></g><g style="pointer-events:inherit" id="svg_126"><polygon class="st5" points="772.7518768310547,833.3963012695312 790.6518402099609,823.0963745117188 772.7518768310547,812.8963012695312 " style="pointer-events:inherit" id="svg_127"></polygon></g><g style="pointer-events:inherit" id="svg_128"><polygon class="st5" points="963.2518768310547,740.1963500976562 964.5518035888672,719.6963500976562 946.1519012451172,728.8963012695312 " style="pointer-events:inherit" id="svg_129"></polygon></g></g><g id="Orange_Arrows" style="pointer-events: inherit"></g><g id="Text"><text transform="matrix(1,0,0,1,295.6265,597.9028) " class="st4 st12 st13" id="svg_137" y="-535.7036743164062" x="-180.1481475830078">Retain</text><text transform="matrix(1,0,0,1,437.4932,597.9023) " class="st4 st12 st13" id="svg_138" y="-535.7036743164062" x="-180.1481475830078">Retire</text><text transform="matrix(1,0,0,1,335.2163,1124.3252) " id="svg_139" y="-535.7036743164062" x="-180.1481475830078"><tspan x="-180.1481475830078" y="-535.7036743164062" class="st4 st12 st13" id="svg_140">Repurchase</tspan><tspan x="-164.8481475830078" y="-514.3036743164063" class="st4 st12 st13" id="svg_141">S/PaaS</tspan><tspan x="-183.7481475830078" y="-492.90367431640624" class="st4 st12 st13" id="svg_142">(if available)</tspan></text><text transform="matrix(1,0,0,1,292.3799,771.8896) " id="svg_143" y="-535.7036743164062" x="-180.1481475830078"><tspan x="-180.1481475830078" y="-535.7036743164062" class="st4 st12 st13" id="svg_144">Design/Build AWS</tspan><tspan x="-155.8481475830078" y="-514.3036743164063" class="st4 st12 st13" id="svg_145">Environment</tspan></text><text transform="matrix(1,0,0,1,537.9961,748.6914) " id="svg_146" y="-535.7036743164062" x="-180.1481475830078"><tspan x="-180.1481475830078" y="-535.7036743164062" class="st4 st12 st13" id="svg_147">Move App</tspan><tspan x="-202.3481475830078" y="-514.3036743164063" class="st4 st12 st13" id="svg_148">Infrastructure</tspan></text><text transform="matrix(1,0,0,1,206.3945,944.0918) " id="svg_149" y="-535.7036743164062" x="-180.1481475830078"><tspan x="-180.1481475830078" y="-535.7036743164062" class="st4 st12 st13" id="svg_150">DISCOVER/ASSESS</tspan><tspan x="-194.94814758300782" y="-514.3036743164063" class="st4 st12 st13" id="svg_151">(Enterprise Architecture</tspan><tspan x="-173.3481475830078" y="-492.90367431640624" class="st4 st12 st13" id="svg_152">and Applications)</tspan></text><text transform="matrix(1,0,0,1,805.3647,688.9111) " id="svg_153" y="-535.7036743164062" x="-180.1481475830078"><tspan x="-180.1481475830078" y="-535.7036743164062" class="st4 st12 st13" id="svg_154">Rehost/</tspan><tspan x="-198.04814758300782" y="-514.3036743164063" class="st4 st12 st13" id="svg_155">Lift and Shift</tspan><tspan x="-218.1481475830078" y="-492.90367431640624" class="st4 st12 st13" id="svg_156">(Minimal Change)</tspan></text><text transform="matrix(1,0,0,1,552.4502,1002.9805) " id="svg_157" y="-535.7036743164062" x="-180.1481475830078"><tspan x="-180.1481475830078" y="-535.7036743164062" class="st4 st12 st13" id="svg_158">Migrate</tspan><tspan x="-207.6481475830078" y="-514.3036743164063" class="st4 st12 st13" id="svg_159">Application</tspan></text><text transform="matrix(1,0,0,1,800.645,937.8467) " id="svg_160" y="-535.7036743164062" x="-180.1481475830078"><tspan x="-180.1481475830078" y="-535.7036743164062" class="st4 st12 st13" id="svg_161">Application</tspan><tspan x="-184.44814758300782" y="-514.3036743164063" class="st4 st12 st13" id="svg_162">Lift and Shift</tspan></text><text transform="matrix(1,0,0,1,981.0029,938.7383) " id="svg_163" y="-535.7036743164062" x="-180.1481475830078"><tspan x="-180.1481475830078" y="-535.7036743164062" class="st4 st12 st13" id="svg_164">Determine</tspan><tspan x="-209.44814758300782" y="-514.3036743164063" class="st4 st12 st13" id="svg_165">Migration Process</tspan></text><text transform="matrix(1,0,0,1,1233.3721,1162.6914) " id="svg_166" y="-535.7036743164062" x="-180.1481475830078"><tspan x="-180.1481475830078" y="-535.7036743164062" class="st4 st12 st13" id="svg_167">Architect AWS Environment</tspan><tspan x="-180.1481475830078" y="-514.3036743164063" class="st4 st12 st13" id="svg_168">and Deploy App, Migrate Data</tspan></text><text transform="matrix(1,0,0,1,997.9551,801.3335) " id="svg_169" y="-535.7036743164062" x="-180.1481475830078"><tspan x="-180.1481475830078" y="-535.7036743164062" class="st4 st12 st13" id="svg_170">Determine</tspan><tspan x="-209.44814758300782" y="-514.3036743164063" class="st4 st12 st13" id="svg_171">Migration Process</tspan></text><text transform="matrix(1,0,0,1,1216.4199,568.4585) " class="st4 st12 st13" id="svg_172" y="-535.7036743164062" x="-180.1481475830078">AWS VM Support</text><text transform="matrix(1,0,0,1,1282.4453,665.7129) " class="st4 st12 st13" id="svg_173" y="-535.7036743164062" x="-180.1481475830078">3rd Party Tools</text><text transform="matrix(1,0,0,1,1281.5537,784.3809) " class="st4 st12 st13" id="svg_174" y="-535.7036743164062" x="-180.1481475830078">Manually Move App and Data</text><text transform="matrix(1,0,0,1,1226.2344,987.8115) " class="st4 st12 st13" id="svg_175" y="-535.7036743164062" x="-180.1481475830078">3rd Party Migration Tools</text><text transform="matrix(1,0,0,1,1230.6953,1061.8682) " class="st4 st12 st13" id="svg_176" y="-535.7036743164062" x="-180.1481475830078">Manually Move App and Data</text><text transform="matrix(1,0,0,1,1437.1709,926.2471) " id="svg_177" y="-535.7036743164062" x="-180.1481475830078"><tspan x="-180.1481475830078" y="-535.7036743164062" class="st4 st12 st13" id="svg_178">Plan Migration</tspan><tspan x="-185.04814758300782" y="-514.3036743164063" class="st4 st12 st13" id="svg_179">and Sequencing</tspan></text><text transform="matrix(1,0,0,1,1614.0303,931.6006) " id="svg_180" y="-535.7036743164062" x="-180.1481475830078"><tspan x="-180.1481475830078" y="-535.7036743164062" class="st4 st12 st13" id="svg_181">Migration/</tspan><tspan x="-153.8481475830078" y="-514.3036743164063" class="st4 st12 st13" id="svg_182">UAT</tspan></text><text transform="matrix(1,0,0,1,1786.7324,933.3848) " class="st4 st12 st13" id="svg_183" y="-535.7036743164062" x="-180.1481475830078">Tuning</text><text transform="matrix(1,0,0,1,1895.1035,934.2773) " class="st4 st12 st13" id="svg_184" y="-535.7036743164062" x="-180.1481475830078">Signoff</text><text transform="matrix(1,0,0,1,2001.4678,933.3848) " class="st4 st12 st13" id="svg_185" y="-535.7036743164062" x="-180.1481475830078">Cutover</text><text transform="matrix(1,0,0,1,2194.5752,942.3076) " class="st4 st12 st13" id="svg_186" y="-535.7036743164062" x="-180.1481475830078">OPERATE</text><text transform="matrix(1,0,0,1,1618.7588,676.4194) " id="svg_187" y="-535.7036743164062" x="-180.1481475830078"><tspan x="-180.1481475830078" y="-535.7036743164062" class="st4 st12 st13" id="svg_188">Org/Ops</tspan><tspan x="-170.1481475830078" y="-514.3036743164063" class="st4 st12 st13" id="svg_189">Impact</tspan><tspan x="-176.6481475830078" y="-492.90367431640624" class="st4 st12 st13" id="svg_190">Analysis</tspan></text><text transform="matrix(1,0,0,1,1730.2617,677.312) " id="svg_191" y="-535.7036743164062" x="-180.1481475830078"><tspan x="-180.1481475830078" y="-535.7036743164062" class="st4 st12 st13" id="svg_192">Identify</tspan><tspan x="-167.1481475830078" y="-514.3036743164063" class="st4 st12 st13" id="svg_193">Ops</tspan><tspan x="-181.04814758300782" y="-492.90367431640624" class="st4 st12 st13" id="svg_194">Change</tspan></text><text transform="matrix(1,0,0,1,1840.9092,677.312) " id="svg_195" y="-535.7036743164062" x="-180.1481475830078"><tspan x="-180.1481475830078" y="-535.7036743164062" class="st4 st12 st13" id="svg_196">Change</tspan><tspan x="-201.3481475830078" y="-514.3036743164063" class="st4 st12 st13" id="svg_197">Management</tspan><tspan x="-167.3481475830078" y="-492.90367431640624" class="st4 st12 st13" id="svg_198">Plan</tspan></text><text transform="matrix(1,0,0,1,664.9087,573.812) " class="st5 st12 st13" id="svg_199" y="-535.7036743164062" x="-180.1481475830078">Refactor for AWS</text><text transform="matrix(1,0,0,1,868.1802,573.812) " class="st5 st12 st13" id="svg_200" y="-535.7036743164062" x="-180.1481475830078">Rebuild App Architecture</text><text transform="matrix(1,0,0,1,739.6333,1132.3555) " class="st5 st12 st13" id="svg_201" y="-535.7036743164062" x="-180.1481475830078">Refactor</text><text transform="matrix(1,0,0,1,870.6265,1133.0693) " class="st5 st12 st13" id="svg_202" y="-535.7036743164062" x="-180.1481475830078">Recode App Components</text><text transform="matrix(1,0,0,1,601.0347,1406.0957) " id="svg_203" y="-535.7036743164062" x="-180.1481475830078"><tspan x="-180.1481475830078" y="-535.7036743164062" class="st5 st12 st13" id="svg_204">Replatform</tspan><tspan x="-200.1481475830078" y="-514.3036743164063" class="st5 st12 st13" id="svg_205">(typically legacy</tspan><tspan x="-186.8481475830078" y="-492.90367431640624" class="st5 st12 st13" id="svg_206">applications)</tspan></text><text transform="matrix(1,0,0,1,805.7773,1408.7725) " class="st5 st12 st13" id="svg_207" y="-535.7036743164062" x="-180.1481475830078">Rearchitect</text><text transform="matrix(1,0,0,1,1050.9736,1407.8799) " class="st5 st12 st13" id="svg_208" y="-535.7036743164062" x="-180.1481475830078">Recode</text><text transform="matrix(1,0,0,1,438.6543,924.4629) " id="svg_209" y="-535.7036743164062" x="-180.1481475830078"><tspan x="-180.1481475830078" y="-535.7036743164062" class="st4 st12 st13" id="svg_210">Determine</tspan><tspan x="-215.94814758300782" y="-514.3036743164063" class="st4 st12 st13" id="svg_211">Migration Path</tspan></text></g></g></svg>