<?xml version="1.0" encoding="utf-8"?>
<!-- Generator: Adobe Illustrator 21.1.0, SVG Export Plug-In . SVG Version: 6.00 Build 0)  -->
<svg version="1.1" id="Layer_1" xmlns="http://www.w3.org/2000/svg" xmlns:xlink="http://www.w3.org/1999/xlink" x="0px" y="0px"
	 viewBox="0 0 209.6 184.7" style="enable-background:new 0 0 209.6 184.7;" xml:space="preserve">
<style type="text/css">
	.st0{fill:#F05E2B;}
	.st1{fill:#FFFFFF;}
</style>
<g>
	<g>
		<path class="st0" d="M101.7,2C67.6,2,40,29.7,40,63.7c0,34,27.7,61.7,61.7,61.7c34,0,61.7-27.7,61.7-61.7
			C163.4,29.7,135.7,2,101.7,2z M137.5,21.3l-27.6,17.2v-6.8h0c-0.1-2.3-3.3-4.1-7.2-4.1c-3.9,0-7,1.8-7.2,4.1h0v6.8L66.7,20.5
			c9.6-7.7,21.7-12.4,34.9-12.4C115.3,8.1,127.8,13.1,137.5,21.3z M63.5,23.4L96,43.5l1.2-1.9h11.1l1.2,1.9l31.2-19.4
			c10.2,10.1,16.6,24.1,16.6,39.6c0,6.6-1.2,12.9-3.3,18.7l-44.5-32.2l-1.2,2h-4.4h-2.6h-4.4l-1.2-2L49.8,83.6
			c-2.4-6.2-3.7-12.9-3.7-19.9C46.1,47.8,52.8,33.5,63.5,23.4z M118.3,116.8c-1.3-5.6-3.9-17.6-5.9-30.8
			c-3.9,4.7-12.1,13.1-22.2,14.3c-1.4,7.4-2.7,13.5-3.5,16.9c-15.6-4.4-28.4-15.4-35.2-29.7l43.8-31.9c0,5.4-0.3,11.4-1,17.5
			c7.4-2.3,13.5-11.2,15.5-14.4c0-1,0-2.1,0-3.1l42.6,30.8C146,100.8,133.5,112,118.3,116.8z"/>
		<path class="st0" d="M94,76.1c-0.9,7.3-2,14.7-3.2,21.2c10.4-1.8,18.9-12.3,21.1-15.3c-0.9-6.2-1.5-12.5-1.9-18.5
			C106.7,68.1,100.9,74.5,94,76.1z"/>
	</g>
	<g>
		<path class="st1" d="M2.6,134.9h5.3v19.3h7.3v5.3H2.6V134.9z"/>
		<path class="st1" d="M18.6,134.9h5.3v24.6h-5.3V134.9z"/>
		<path class="st1" d="M49.8,140.2l-3.5,3.3c-0.7-1.3-1.7-2.2-2.7-2.9c-1.1-0.6-2.2-0.9-3.4-0.9c-1.9,0-3.6,0.7-5,2.2
			c-1.4,1.5-2.1,3.2-2.1,5.2c0,2.1,0.7,3.9,2.1,5.4c1.4,1.5,3.1,2.2,5.1,2.2c1.1,0,2.1-0.3,3.1-0.8c1-0.6,1.8-1.6,2.4-3.1H40V146
			h11.4v3.2c0,1.6-0.6,3.4-1.7,5.3s-2.6,3.3-4.4,4.1c-1.8,0.9-3.7,1.3-5.6,1.3c-3.4,0-6.3-1.2-8.6-3.7c-2.3-2.5-3.5-5.5-3.5-9.1
			c0-3.4,1.2-6.4,3.6-8.8s5.3-3.7,8.7-3.7C44.2,134.6,47.5,136.5,49.8,140.2z"/>
		<path class="st1" d="M55.3,134.9h5.3v9.5h8.7v-9.5h5.3v24.6h-5.3v-9.8h-8.7v9.8h-5.3V134.9z"/>
		<path class="st1" d="M78,134.9h16.6v5.2h-5.6v19.4h-5.3v-19.4H78V134.9z"/>
		<path class="st1" d="M98.1,134.9h5.3v9.5h8.7v-9.5h5.3v24.6h-5.3v-9.8h-8.7v9.8h-5.3V134.9z"/>
		<path class="st1" d="M121.7,147.2c0-3.6,1.2-6.6,3.6-9c2.4-2.4,5.3-3.6,8.6-3.6c3.7,0,6.7,1.2,9.1,3.6c2.4,2.4,3.6,5.4,3.6,9
			c0,3.6-1.2,6.6-3.5,9s-5.3,3.6-8.9,3.6s-6.5-1.2-8.9-3.6S121.7,150.9,121.7,147.2z M134.1,139.5c-2.1,0-3.7,0.7-5,2.1
			s-1.9,3.4-1.9,5.7c0,2.2,0.6,4,1.9,5.4c1.3,1.4,2.9,2.2,4.9,2.2c2.1,0,3.7-0.7,5-2.1c1.3-1.4,1.9-3.3,1.9-5.6
			c0-2.3-0.6-4.1-1.9-5.5C137.8,140.3,136.2,139.6,134.1,139.5z"/>
		<path class="st1" d="M151,134.9h5.2V150c0,1.4,0.4,2.5,1.2,3.4s1.8,1.3,3.1,1.3c1.5,0,2.6-0.4,3.4-1.3c0.8-0.9,1.2-2.1,1.2-3.6
			v-14.8h5.2v15.9c0,1.4-0.4,2.9-1.1,4.4c-0.7,1.5-1.8,2.7-3.3,3.5c-1.5,0.8-3.2,1.2-5.1,1.2c-3.4,0-5.8-0.9-7.4-2.8
			c-1.6-1.9-2.3-3.9-2.3-5.9V134.9z"/>
		<path class="st1" d="M189.2,137.1l-3.3,3.6c-1.7-1-3-1.5-3.8-1.5c-0.6,0-1.1,0.2-1.5,0.7c-0.4,0.4-0.6,1-0.6,1.6
			c0,1.2,1.1,2.3,3.3,3.2c1.6,0.7,2.8,1.3,3.7,1.9c0.8,0.6,1.5,1.3,2.1,2.3c0.6,1,0.8,2.1,0.8,3.2c0,2.1-0.9,4-2.6,5.5
			c-1.7,1.6-3.7,2.3-6.1,2.3c-2.6,0-5.1-1.2-7.6-3.6l3.5-4.1c1.6,1.6,3,2.4,4.4,2.4c0.6,0,1.3-0.3,1.8-0.9c0.6-0.6,0.9-1.2,0.9-1.8
			c0-1.3-1.4-2.4-4.1-3.4c-1.6-0.6-2.7-1.1-3.3-1.6s-1.2-1.2-1.6-2.2c-0.4-0.9-0.7-1.9-0.7-2.9c0-2.2,0.7-4,2.1-5.3s3.3-2,5.6-2
			C185,134.6,187.3,135.4,189.2,137.1z"/>
		<path class="st1" d="M193.7,134.9h13.9v4.9H199v5h8.6v4.8H199v5.1h8.6v4.9h-13.9V134.9z"/>
	</g>
	<g>
		<g>
			<path class="st1" d="M31.4,166.3l-1.7,1.4c-0.4-0.5-0.9-0.8-1.2-1c-0.4-0.2-0.9-0.3-1.6-0.3c-0.8,0-1.4,0.2-1.8,0.5
				c-0.5,0.3-0.7,0.8-0.7,1.3c0,0.5,0.2,0.9,0.6,1.2c0.4,0.4,1.1,0.7,2.1,1.2c1,0.4,1.7,0.8,2.3,1.2c0.5,0.4,1,0.8,1.3,1.2
				c0.4,0.4,0.6,0.9,0.8,1.4s0.3,1,0.3,1.5c0,1.3-0.5,2.4-1.4,3.3c-0.9,0.9-2,1.3-3.4,1.3c-1.3,0-2.4-0.4-3.4-1.1
				c-1-0.7-1.7-1.8-2.3-3.2l2.1-0.6c0.8,1.7,1.9,2.6,3.5,2.6c0.8,0,1.4-0.2,1.9-0.7s0.8-1,0.8-1.7c0-0.4-0.1-0.8-0.4-1.3
				s-0.6-0.8-1-1c-0.4-0.3-1-0.6-1.9-0.9c-0.9-0.4-1.5-0.7-2-1s-0.9-0.6-1.2-1s-0.6-0.8-0.7-1.2s-0.2-0.8-0.2-1.3
				c0-1.1,0.4-2,1.3-2.8c0.9-0.8,1.9-1.2,3.2-1.2c0.8,0,1.7,0.2,2.5,0.5C30.1,165,30.8,165.6,31.4,166.3z"/>
			<path class="st1" d="M33.7,172.2c0-2.2,0.8-4.1,2.5-5.7s3.7-2.4,6-2.4c2.3,0,4.2,0.8,5.9,2.4c1.6,1.6,2.5,3.5,2.5,5.7
				c0,2.3-0.8,4.3-2.4,5.9c-1.6,1.6-3.6,2.4-6,2.4c-2.3,0-4.3-0.8-6-2.4C34.5,176.4,33.7,174.5,33.7,172.2z M48.4,172.3
				c0-1.7-0.6-3.1-1.8-4.3c-1.2-1.2-2.7-1.7-4.5-1.7c-1.7,0-3.1,0.6-4.3,1.8c-1.2,1.2-1.8,2.6-1.8,4.2c0,1.7,0.6,3.1,1.9,4.2
				s2.8,1.7,4.5,1.7c1.6,0,3.1-0.6,4.3-1.8S48.4,173.9,48.4,172.3z"/>
			<path class="st1" d="M53.1,164.6h8.5v2.1h-6.4v3.8h6.4v2.1h-6.4v7.3h-2.1V164.6z"/>
			<path class="st1" d="M63.1,164.6h9.4v2.1h-3.7v13.2h-2.1v-13.2h-3.6V164.6z"/>
			<path class="st1" d="M85.5,164l4.9,11.3l4.6-10.7h2.2l-6.8,15.8l-4.9-11.3l-4.9,11.3l-6.8-15.8H76l4.7,10.8L85.5,164z"/>
			<path class="st1" d="M103.4,164l7.2,15.9h-2.2l-1.8-3.9h-6.5l-1.8,3.9h-2.2L103.4,164z M103.4,168.8l-2.4,5.5h4.9L103.4,168.8z"
				/>
			<path class="st1" d="M112.9,164.6h3.3c1.6,0,3,0.4,4,1.2c1,0.8,1.6,1.9,1.6,3.2c0,1-0.3,1.9-1,2.7c-0.7,0.8-1.7,1.3-3.1,1.7
				l4.4,6.5h-2.4l-4.2-6.3H115v6.3h-2.1V164.6z M115,166.5v5.3c3.1,0.1,4.6-0.8,4.6-2.7c0-0.6-0.2-1.2-0.5-1.6s-0.8-0.7-1.4-0.8
				C117,166.5,116.2,166.5,115,166.5z"/>
			<path class="st1" d="M124.7,164.6h8.5v2.1h-6.4v3.8h6.4v2.1h-6.4v5.3h6.4v2.1h-8.5V164.6z"/>
			<path class="st1" d="M136.5,176.9l2.6,1l-2.8,6.1l-1.9-0.7L136.5,176.9z"/>
			<path class="st1" d="M147.8,164.6h2.1v15.3h-2.1V164.6z"/>
			<path class="st1" d="M153.1,164l11.3,11.6v-11h2.1v16L155.2,169v10.9h-2.1V164z"/>
			<path class="st1" d="M182,165.1v2.4c-1.6-0.8-3.2-1.2-4.6-1.2c-1.8,0-3.3,0.6-4.5,1.7c-1.2,1.1-1.8,2.6-1.8,4.2
				c0,1.7,0.6,3.1,1.9,4.3c1.2,1.1,2.8,1.7,4.7,1.7c1.4,0,2.8-0.4,4.3-1.3v2.4c-1.4,0.7-2.9,1.1-4.5,1.1c-2.4,0-4.4-0.8-6.1-2.4
				c-1.7-1.6-2.5-3.5-2.5-5.8c0-2.2,0.8-4.1,2.5-5.7c1.7-1.6,3.6-2.4,6-2.4C178.8,164.1,180.4,164.5,182,165.1z"/>
		</g>
	</g>
</g>
</svg>
